HIERARCHY
ROOT Hips
{
    OFFSET 0.000000 0.000000 0.000000
    CHANNELS 6 Xposition Yposition Zposition Zrotation Xrotation Yrotation
    JOINT Spine
    {
        OFFSET -0.000000 7.236184 0.000000
        CHANNELS 3 Zrotation Xrotation Yrotation
        JOINT Spine1
        {
            OFFSET -0.000000 20.420147 0.000000
            CHANNELS 3 Zrotation Xrotation Yrotation
            JOINT Neck
            {
                OFFSET -0.000000 20.336288 1.848754
                CHANNELS 3 Zrotation Xrotation Yrotation
                JOINT Head
                {
                    OFFSET -0.000000 12.354461 -1.764923
                    CHANNELS 3 Zrotation Xrotation Yrotation
                    End Site
                    {
                        OFFSET -0.000000 22.061537 0.000000
                    }
                }
            }
            JOINT LeftShoulder
            {
                OFFSET 3.573296 18.396038 -0.314103
                CHANNELS 3 Zrotation Xrotation Yrotation
                JOINT LeftArm
                {
                    OFFSET 10.880760 0.000000 0.000000
                    CHANNELS 3 Zrotation Xrotation Yrotation
                    JOINT LeftForeArm
                    {
                        OFFSET 27.185530 0.000000 0.000000
                        CHANNELS 3 Zrotation Xrotation Yrotation
                        JOINT LeftHand
                        {
                            OFFSET 27.825975 0.000000 0.000000
                            CHANNELS 3 Zrotation Xrotation Yrotation
                            End Site
                            {
                                OFFSET 13.236923 0.000000 0.000000
                            }
                        }
                    }
                }
            }
            JOINT RightShoulder
            {
                OFFSET -3.474926 18.396038 -0.314103
                CHANNELS 3 Zrotation Xrotation Yrotation
                JOINT RightArm
                {
                    OFFSET -10.880760 0.000000 0.000000
                    CHANNELS 3 Zrotation Xrotation Yrotation
                    JOINT RightForeArm
                    {
                        OFFSET -27.185530 0.000000 0.000000
                        CHANNELS 3 Zrotation Xrotation Yrotation
                        JOINT RightHand
                        {
                            OFFSET -27.825975 0.000000 0.000000
                            CHANNELS 3 Zrotation Xrotation Yrotation
                            End Site
                            {
                                OFFSET -13.236923 0.000000 0.000000
                            }
                        }
                    }
                }
            }
        }
    }
    JOINT LeftUpLeg
    {
        OFFSET 8.824615 0.000000 0.000000
        CHANNELS 3 Zrotation Xrotation Yrotation
        JOINT LeftLeg
        {
            OFFSET -0.000000 -35.111282 0.000000
            CHANNELS 3 Zrotation Xrotation Yrotation
            JOINT LeftFoot
            {
                OFFSET -0.000000 -42.324711 0.000000
                CHANNELS 3 Zrotation Xrotation Yrotation
                JOINT LeftToeBase
                {
                    OFFSET -0.000000 -5.735999 13.236923
                    CHANNELS 3 Zrotation Xrotation Yrotation
                    End Site
                    {
                        OFFSET -0.000000 0.000000 3.529846
                    }
                }
            }
        }
    }
    JOINT RightUpLeg
    {
        OFFSET -8.824615 0.000000 0.000000
        CHANNELS 3 Zrotation Xrotation Yrotation
        JOINT RightLeg
        {
            OFFSET -0.000000 -35.111282 0.000000
            CHANNELS 3 Zrotation Xrotation Yrotation
            JOINT RightFoot
            {
                OFFSET -0.000000 -42.324711 0.000000
                CHANNELS 3 Zrotation Xrotation Yrotation
                JOINT RightToeBase
                {
                    OFFSET -0.000000 -5.735999 13.236923
                    CHANNELS 3 Zrotation Xrotation Yrotation
                    End Site
                    {
                        OFFSET -0.000000 0.000000 3.529846
                    }
                }
            }
        }
    }
}
MOTION
Frames:    7
Frame Time:    0.008333
-24.994370    85.579552    96.676804    -3.804399    -8.061533    165.770523    -3.889840    -17.577511    0.188277    2.654716    9.542266    0.568373    3.567862    7.570196    -0.050509    7.658699    -10.407107    1.431048    -4.788382    19.457212    2.352474    -52.360577    26.267189    -26.568010    1.117276    -6.453615    -5.804339    17.735844    -5.981959    2.677374    14.575101    20.998949    -10.908835    40.942440    37.937214    33.204319    -1.392081    -10.545580    15.672538    -18.415440    -9.704226    -4.088712    2.148432    -9.515196    -7.559374    -0.862843    10.078849    2.653339    -1.190246    -8.030517    -9.988305    0.843898    -0.729987    -0.936667    -7.414281    -9.781996    -0.393178    1.596462    8.511379    2.902364    1.690048    -2.904774    -12.761502    -0.630889    -2.164343    0.684423    
-25.158361    85.581169    96.653709    -3.888250    -8.071320    165.367615    -3.869071    -17.562634    0.231756    2.694223    9.549395    0.604622    3.550202    7.430610    0.033831    7.468571    -10.808192    1.496650    -4.812401    19.328831    2.400634    -52.516678    24.983477    -26.342892    1.341450    -6.227478    -5.538769    17.096952    -5.738891    2.836004    14.609385    21.027309    -10.791360    40.973137    37.620831    33.296967    -1.420018    -10.726139    15.352556    -18.193901    -9.879328    -4.178160    2.053767    -9.331463    -7.710961    -0.979274    9.776275    3.141630    -1.147265    -7.998973    -9.963087    0.736139    -0.597561    -0.816866    -7.557162    -10.330264    -0.189657    1.729493    9.204499    2.597249    1.671259    -2.784535    -12.771111    -0.663922    -2.408135    0.720510    
-25.318909    85.582771    96.631912    -3.971229    -8.079921    164.967377    -3.847946    -17.547623    0.275333    2.731612    9.557686    0.641065    3.533882    7.295169    0.117304    7.286702    -11.207157    1.562102    -4.834988    19.197828    2.445339    -52.663521    23.694656    -26.133301    1.565231    -5.992395    -5.277742    16.472429    -5.486121    3.016225    14.641442    21.054976    -10.673518    41.006340    37.302238    33.389389    -1.449058    -10.906919    15.039103    -17.964785    -10.054977    -4.269040    1.958813    -9.153417    -7.847060    -1.086669    9.480879    3.610546    -1.101480    -7.967287    -9.935042    0.632077    -0.472190    -0.701233    -7.692007    -10.872872    0.004706    1.862948    9.887249    2.296210    1.650841    -2.662470    -12.791848    -0.696639    -2.648075    0.756276    
-25.475016    85.584305    96.612373    -4.053456    -8.087407    164.567657    -3.824868    -17.532293    0.319521    2.764719    9.567179    0.678192    3.522129    7.164938    0.201365    7.108433    -11.605296    1.626974    -4.855171    19.061296    2.484599    -52.802094    22.393545    -25.939262    1.790724    -5.748755    -5.021219    15.862069    -5.223135    3.225860    14.669842    21.080980    -10.554318    41.042412    36.977661    33.483646    -1.475791    -11.090918    14.733488    -17.716148    -10.235010    -4.362056    1.863427    -8.982985    -7.959198    -1.182652    9.196276    4.055328    -1.051735    -7.935207    -9.903276    0.534751    -0.357114    -0.593135    -7.819055    -11.410473    0.181407    2.001462    10.558025    1.993182    1.625397    -2.535520    -12.823736    -0.728833    -2.888591    0.791499    
-25.626781    85.585762    96.595749    -4.135743    -8.093586    164.164413    -3.799220    -17.515909    0.364814    2.792683    9.577537    0.716378    3.511517    7.039605    0.288278    6.939270    -12.004869    1.691407    -4.871846    18.916183    2.516677    -52.934044    21.067694    -25.759785    2.022514    -5.494448    -4.769721    15.263604    -4.947137    3.471911    14.693748    21.104588    -10.433186    41.080681    36.641544    33.583130    -1.497136    -11.282319    14.435302    -17.436146    -10.424319    -4.458505    1.766935    -8.820193    -8.042251    -1.266785    8.923021    4.476538    -0.997137    -7.902251    -9.867569    0.446243    -0.253767    -0.494871    -7.939333    -11.945833    0.336059    2.149952    11.218146    1.677862    1.592187    -2.400037    -12.867476    -0.760005    -3.136226    0.825647    
-25.771713    85.586990    96.582756    -4.217552    -8.098127    163.761719    -3.771891    -17.497528    0.410660    2.815479    9.586860    0.755175    3.504051    6.922012    0.369142    6.779291    -12.400062    1.762501    -4.883781    18.764284    2.539077    -53.057266    19.734241    -25.597340    2.261839    -5.232325    -4.531238    14.686625    -4.661040    3.753737    14.712090    21.124485    -10.312965    41.119175    36.295120    33.688766    -1.509725    -11.481204    14.149773    -17.121105    -10.623532    -4.558060    1.670426    -8.667468    -8.092381    -1.337986    8.665555    4.869440    -0.938693    -7.868729    -9.829455    0.369383    -0.164598    -0.409570    -8.051787    -12.471730    0.460817    2.309111    11.857624    1.347861    1.549974    -2.256369    -12.922777    -0.788849    -3.391632    0.857301    
-25.910326    85.587921    96.573624    -4.300098    -8.100584    163.356415    -3.744347    -17.475513    0.457216    2.835106    9.592541    0.794996    3.497197    6.812534    0.453527    6.627986    -12.792973    1.831106    -4.890044    18.601570    2.547089    -53.172802    18.390551    -25.445513    2.513704    -4.960520    -4.311050    14.132818    -4.362770    4.072993    14.723741    21.140583    -10.195822    41.156017    35.933784    33.804459    -1.510574    -11.691302    13.876631    -16.765247    -10.836884    -4.662101    1.572626    -8.523871    -8.108717    -1.396810    8.422806    5.239407    -0.877182    -7.834289    -9.791720    0.304313    -0.088846    -0.337374    -8.157802    -12.990571    0.550913    2.481288    12.479661    0.996304    1.497456    -2.103760    -12.990499    -0.814342    -3.661397    0.885355    
